<?xml version="1.0" encoding="utf-8"?>
<!-- Generator: Adobe Illustrator 18.0.0, SVG Export Plug-In . SVG Version: 6.00 Build 0)  -->
<!DOCTYPE svg PUBLIC "-//W3C//DTD SVG 1.1//EN" "http://www.w3.org/Graphics/SVG/1.1/DTD/svg11.dtd">
<svg version="1.1" id="Layer_1" xmlns="http://www.w3.org/2000/svg" xmlns:xlink="http://www.w3.org/1999/xlink" x="0px" y="0px"
	 viewBox="0 0 1500 1000" enable-background="new 0 0 1500 1000" xml:space="preserve">
<path fill="#FFFFFF" d="M515.1,396.6h20.3l-51.6,119.9h-20.6l1.5-119.9h20.3l-3.5,83.2h0.3L515.1,396.6z M523.1,516.4l26.6-119.9
	h20.6l-26.6,119.9H523.1z M624,426.1c1.3-10.3-3.5-13.3-8.1-13.3c-6.6,0-11.1,4.3-12.8,11.8c-4.6,20.4,35,30.2,27.9,62.7
	c-4.5,19.8-20.1,30.7-39.3,30.7c-19.1,0-26.7-15.3-23.6-33.2l20.3-2.8c-1.8,12.1,1.7,18.1,8.3,18.1c7.1,0,12.8-3.8,14.3-11
	c5.3-23.7-35.2-30-27.6-64.4c4.3-19.1,18.3-29.9,38.5-29.9c16.8,0,24.1,12.1,22.1,29L624,426.1z M699.4,436.6l2-9.3
	c2.3-10.1-1.5-14.4-6.8-14.4c-8.3,0-11.8,4.3-13.8,13.3l-13.6,60.8c-2,9-0.2,13.3,8.1,13.3c7.5,0,10.8-4.3,12.6-12.1l3.2-14.4h20.6
	l-3,13.8c-3.8,16.9-16.8,30.7-37.4,30.7c-21.6,0-28.6-13.8-24.7-30.7l13.6-61.8c3.8-16.9,16.8-30.7,38.3-30.7
	c20.6,0,27.2,14.9,23.2,32.9l-1.8,8.8H699.4z M723.1,516.4l26.6-119.9h55.1l-4,17.9h-34.5l-6.8,30.9H786l-4,17.9h-26.6l-7.8,35.2
	h36.9l-4,17.9H723.1z M817.4,516.4h-20.6l26.6-119.9h28.9c23.1,0,32.7,9.8,27.1,35.4c-4.3,19.3-13.4,27.1-21.2,30.2l5.5,54.3h-20.9
	l-3.7-49.6c-2.7,0.3-7,0.5-10.6,0.5L817.4,516.4z M832,450.4h7.3c11.1,0,16.3-4.1,19.4-18.4c3.2-14.3-0.2-18.4-11.3-18.4h-7.3
	L832,450.4z M891.8,516.4h-19.9l48.6-119.9h25.6l-4.5,119.9h-19.9l2.2-26.6h-22.6L891.8,516.4z M908.2,472h16.6l3.3-51.5h-0.3
	L908.2,472z M952.5,516.4l26.6-119.9h20.6l-22.6,101.9h32.4l-4,17.9H952.5z"/>
</svg>
